<svg xmlns="http://www.w3.org/2000/svg" width="56.896" height="49.178" viewBox="0 0 56.896 49.178">
    <g>
        <g>
            <g>
                <g>
                    <g>
                        <g>
                            <path fill="#dcf5f8" stroke="#363636" stroke-width="1.8px" d="M594.371 378.819h-25.508a2.467 2.467 0 0 0-2.467 2.467v42.443a2.467 2.467 0 0 0 2.467 2.467h31.614a2.467 2.467 0 0 0 2.467-2.467v-36.337z" transform="translate(-147.962 -535.723) translate(3 173) translate(112.277 16.64) translate(52.131 344.061) translate(0 2.922) translate(-566.396 -378.819)"/>
                            <path fill="#363636" d="M628.245 384.959a2.617 2.617 0 0 0 2.617 2.616h6.475l-9.091-9.092z" transform="translate(-147.962 -535.723) translate(3 173) translate(112.277 16.64) translate(52.131 344.061) translate(0 2.922) translate(-600.789 -378.099)"/>
                        </g>
                    </g>
                </g>
            </g>
        </g>
        <g transform="translate(-147.962 -535.723) translate(1 -1)">
            <circle cx="7" cy="7" r="7" fill="#e1e3ea" transform="translate(161 554)"/>
            <path fill="#fff" stroke="#363636" stroke-width="1.8px" d="M0 12.417v4.53l3.956.438a11.006 11.006 0 0 0 1.233 2.966L2.7 23.462l3.2 3.2 3.114-2.493a10.994 10.994 0 0 0 2.964 1.231l.439 3.964h4.53l.439-3.964a10.988 10.988 0 0 0 2.962-1.227l3.114 2.493 3.2-3.2-2.49-3.11a10.994 10.994 0 0 0 1.233-2.966l3.956-.438v-4.53l-3.95-.437A10.992 10.992 0 0 0 24.183 9l2.482-3.1-3.2-3.2-3.1 2.48a11 11 0 0 0-2.981-1.237L16.947 0h-4.53l-.437 3.941A11 11 0 0 0 9 5.178L5.9 2.7 2.7 5.9 5.181 9a11 11 0 0 0-1.231 2.979zm14.682-4.428A6.682 6.682 0 1 1 8 14.671a6.682 6.682 0 0 1 6.682-6.682z" transform="rotate(-25 1324.533 -56.93)"/>
        </g>
    </g>
</svg>
