<svg xmlns="http://www.w3.org/2000/svg" width="47.574" height="47.715" viewBox="0 0 47.574 47.715">
    <g transform="translate(-580.15 -534.305)">
        <path fill="#dcf5f8" stroke="#dcf5f8" d="M-23998.5-8846.479l-5.779-5.921-7.041-14.56 1.762-10.4 7.68-5.119h6.078l7.2 4.159 3.041 7.041-1.121 7.84-4.641 7.359z" transform="translate(24603 9418)"/>
        <g>
            <path stroke="#000" stroke-width="0.7px" d="M26.874 52.022a3.129 3.129 0 0 0-3.1 2.77H9.666a3.124 3.124 0 0 0-6.208 0h-14.1a3.129 3.129 0 0 0-3.1-2.77 3.129 3.129 0 0 0-3.126 3.126 3.129 3.129 0 0 0 3.126 3.126 3.129 3.129 0 0 0 3.1-2.77h14.1a3.124 3.124 0 0 0 6.208 0h14.1a3.125 3.125 0 1 0 3.1-3.482zm-40.623 5.54a2.416 2.416 0 0 1-2.414-2.414 2.416 2.416 0 0 1 2.414-2.414 2.416 2.416 0 0 1 2.414 2.414 2.416 2.416 0 0 1-2.414 2.414zm20.312 0a2.414 2.414 0 1 1 2.414-2.414 2.416 2.416 0 0 1-2.414 2.414zm20.312 0a2.414 2.414 0 1 1 2.414-2.414 2.416 2.416 0 0 1-2.415 2.414z" transform="translate(167.174 35.021) translate(430.201 488.377)"/>
            <g>
                <g>
                    <path d="M18.121 272.658a13.9 13.9 0 0 0-13.889 13.888c0 5.57 3.373 11.507 6.673 16.128a69.753 69.753 0 0 0 6.6 7.923.868.868 0 0 0 1.227 0 69.738 69.738 0 0 0 6.6-7.923c3.3-4.621 6.67-10.558 6.67-16.128a13.9 13.9 0 0 0-13.888-13.888zm0 1.736a12.139 12.139 0 0 1 12.152 12.152c0 4.846-3.137 10.625-6.347 15.119a55.845 55.845 0 0 1-5.805 6.968 55.97 55.97 0 0 1-5.8-6.968c-3.21-4.493-6.35-10.272-6.35-15.119a12.139 12.139 0 0 1 12.152-12.152z" transform="translate(167.174 35.021) translate(423.359 499.286) translate(-4.232 -272.658)"/>
                    <path d="M15.07 277.42a6.078 6.078 0 1 0 6.078 6.078 6.089 6.089 0 0 0-6.078-6.078zm0 1.736a4.341 4.341 0 1 1-4.338 4.341 4.329 4.329 0 0 1 4.338-4.341z" transform="translate(167.174 35.021) translate(423.359 499.286) translate(-1.182 -269.609)"/>
                </g>
            </g>
        </g>
        <circle cx="4.5" cy="4.5" r="4.5" fill="#fff" transform="translate(600 544)"/>
    </g>
</svg>
